<svg width="708" height="303" viewBox="0 0 708 303" fill="none" xmlns="http://www.w3.org/2000/svg">
<path d="M609.273 43L651.65 62.5584L607.643 73.9675L570.156 56.0389L609.273 43Z" stroke="#3191F9" stroke-width="8" stroke-linejoin="round"/>
<path d="M518 258.142L570.156 56.0383L607.643 73.9669L548.967 293.999L518 258.142Z" stroke="#3191F9" stroke-width="8" stroke-linejoin="round"/>
<path d="M671.207 233.695L648.389 217.396" stroke="#3191F9" stroke-width="8"/>
<path d="M648.389 179.909L622.311 160.351" stroke="#3191F9" stroke-width="8"/>
<path d="M651.649 62.5588L607.643 73.9679L548.968 294L594.604 274.442L606.013 235.325L661.429 210.877L671.208 233.695L703.805 217.396L651.649 62.5588Z" stroke="#3191F9" stroke-width="8" stroke-linejoin="round"/>
<path d="M612.532 196.208L632.091 127.753L653.279 179.909L612.532 196.208Z" stroke="#3191F9" stroke-width="8" stroke-linejoin="round"/>
<path d="M292.075 262.048L282.725 226.897C282.514 226.106 282.073 225.394 281.458 224.853C280.842 224.312 280.081 223.966 279.269 223.857C278.457 223.749 277.631 223.883 276.895 224.244C276.159 224.605 275.547 225.176 275.136 225.884L264.308 244.564L237.242 228.703V136.641C237.237 136.419 237.215 136.197 237.176 135.978C237.207 135.811 237.229 135.642 237.242 135.472C237.243 134.749 237.054 134.038 236.694 133.411C236.334 132.784 235.816 132.262 235.192 131.897L155.643 85.2945V53.9884H177.219C178.039 53.9875 178.839 53.7438 179.52 53.2881C180.2 52.8325 180.731 52.1852 181.044 51.4282C181.356 50.6712 181.438 49.8384 181.278 49.0352C181.117 48.2319 180.722 47.4942 180.143 46.9153L154.428 21.1958C153.651 20.4195 152.598 19.9835 151.5 19.9835C150.402 19.9835 149.349 20.4195 148.572 21.1958L122.857 46.9153C122.277 47.4945 121.882 48.2326 121.722 49.0363C121.562 49.84 121.644 50.6732 121.957 51.4304C122.271 52.1876 122.802 52.8348 123.483 53.2901C124.165 53.7455 124.966 53.9885 125.785 53.9884H147.357V85.2945L67.8081 131.897C67.1841 132.262 66.6665 132.784 66.3068 133.411C65.9472 134.038 65.758 134.749 65.7581 135.472C65.7703 135.642 65.7933 135.811 65.8268 135.978C65.7857 136.197 65.7628 136.419 65.7581 136.641V228.699L38.6941 244.559L27.8642 225.877C27.4527 225.169 26.8406 224.598 26.105 224.237C25.3694 223.876 24.5434 223.742 23.7314 223.85C22.9193 223.959 22.1576 224.305 21.5424 224.846C20.9272 225.387 20.4862 226.099 20.275 226.89L10.9246 262.048C10.6428 263.11 10.7942 264.241 11.3455 265.191C11.8967 266.142 12.8028 266.835 13.8646 267.118L49.0174 276.469C49.809 276.679 50.6452 276.649 51.4203 276.384C52.1953 276.119 52.8744 275.631 53.3717 274.98C53.869 274.329 54.1622 273.545 54.2143 272.728C54.2663 271.91 54.0749 271.096 53.6641 270.387L42.8461 251.722L69.8983 235.874L149.403 282.448C149.45 282.476 149.504 282.486 149.552 282.512C149.779 282.633 150.017 282.733 150.262 282.81C150.345 282.836 150.425 282.867 150.511 282.888C151.154 283.062 151.832 283.062 152.475 282.888C152.56 282.867 152.641 282.836 152.712 282.81C152.957 282.733 153.195 282.633 153.422 282.512C153.469 282.486 153.524 282.476 153.571 282.448L233.099 235.874L260.152 251.734L249.336 270.39C248.971 271.019 248.778 271.734 248.777 272.462C248.776 273.19 248.966 273.905 249.33 274.536C249.693 275.167 250.216 275.69 250.847 276.055C251.477 276.419 252.192 276.611 252.92 276.611C253.279 276.61 253.637 276.563 253.985 276.471L289.138 267.121C290.2 266.837 291.106 266.143 291.656 265.192C292.207 264.241 292.358 263.11 292.075 262.048ZM151.5 29.9828L167.22 45.7032H135.78L151.5 29.9828ZM19.998 260.168L25.7124 238.686L41.4802 265.882L19.998 260.168ZM151.5 92.4694L224.904 135.472L151.5 178.472L78.0983 135.472L151.5 92.4694ZM74.0433 142.699L147.357 185.647V271.647L74.0433 228.699V142.699ZM155.643 271.647V185.647L228.957 142.699V228.699L155.643 271.647ZM261.52 265.882L277.288 238.686L283.004 260.168L261.52 265.882Z" fill="#3191F9"/>
</svg>
