<svg width="181" height="303" viewBox="0 0 181 303" fill="none" xmlns="http://www.w3.org/2000/svg">
<g clip-path="url(#clip0)">
<path d="M217.289 262.048L207.939 226.897C207.728 226.106 207.287 225.394 206.672 224.853C206.056 224.312 205.295 223.966 204.483 223.857C203.671 223.749 202.845 223.883 202.109 224.244C201.373 224.605 200.761 225.176 200.35 225.884L189.522 244.564L162.456 228.703V136.641C162.451 136.419 162.429 136.197 162.39 135.978C162.421 135.811 162.443 135.642 162.456 135.472C162.457 134.749 162.268 134.038 161.908 133.411C161.548 132.784 161.03 132.262 160.406 131.897L80.8566 85.2945V53.9884H102.434C103.253 53.9875 104.053 53.7438 104.734 53.2881C105.414 52.8325 105.945 52.1852 106.258 51.4282C106.57 50.6712 106.652 49.8384 106.492 49.0352C106.331 48.2319 105.936 47.4942 105.357 46.9153L79.6422 21.1958C78.8654 20.4195 77.8122 19.9835 76.714 19.9835C75.6159 19.9835 74.5626 20.4195 73.7858 21.1958L48.0711 46.9153C47.4913 47.4945 47.0964 48.2326 46.9363 49.0363C46.7761 49.84 46.858 50.6732 47.1714 51.4304C47.4849 52.1876 48.0159 52.8348 48.6973 53.2901C49.3787 53.7455 50.1798 53.9885 50.9993 53.9884H72.5715V85.2945L-6.97787 131.897C-7.60189 132.262 -8.11948 132.784 -8.47913 133.411C-8.83878 134.038 -9.02796 134.749 -9.02785 135.472C-9.01561 135.642 -8.99268 135.811 -8.9592 135.978C-9.00022 136.197 -9.02318 136.419 -9.02785 136.641V228.699L-36.0919 244.559L-46.9218 225.877C-47.3332 225.169 -47.9454 224.598 -48.681 224.237C-49.4166 223.876 -50.2425 223.742 -51.0546 223.85C-51.8667 223.959 -52.6284 224.305 -53.2436 224.846C-53.8588 225.387 -54.2998 226.099 -54.511 226.89L-63.8614 262.048C-64.1431 263.11 -63.9917 264.241 -63.4405 265.191C-62.8892 266.142 -61.9832 266.835 -60.9213 267.118L-25.7686 276.469C-24.9769 276.679 -24.1407 276.649 -23.3657 276.384C-22.5906 276.119 -21.9116 275.631 -21.4142 274.98C-20.9169 274.329 -20.6237 273.545 -20.5717 272.728C-20.5196 271.91 -20.7111 271.096 -21.1218 270.387L-31.9399 251.722L-4.88764 235.874L74.6167 282.448C74.664 282.476 74.7185 282.486 74.7658 282.512C74.993 282.633 75.2307 282.733 75.476 282.81C75.5589 282.836 75.6393 282.867 75.7245 282.888C76.368 283.062 77.0459 283.062 77.6893 282.888C77.7745 282.867 77.855 282.836 77.926 282.81C78.1714 282.733 78.4091 282.633 78.6362 282.512C78.6835 282.486 78.738 282.476 78.7853 282.448L158.313 235.874L185.366 251.734L174.55 270.39C174.185 271.019 173.992 271.734 173.991 272.462C173.99 273.19 174.18 273.905 174.544 274.536C174.907 275.167 175.43 275.69 176.061 276.055C176.691 276.419 177.406 276.611 178.134 276.611C178.493 276.61 178.851 276.563 179.199 276.471L214.352 267.121C215.414 266.837 216.32 266.143 216.87 265.192C217.421 264.241 217.572 263.11 217.289 262.048ZM76.714 29.9828L92.4345 45.7032H60.9935L76.714 29.9828ZM-54.788 260.168L-49.0736 238.686L-33.3057 265.882L-54.788 260.168ZM76.714 92.4694L150.118 135.472L76.714 178.472L3.31229 135.472L76.714 92.4694ZM-0.742699 142.699L72.5715 185.647V271.647L-0.742699 228.699V142.699ZM80.8566 271.647V185.647L154.171 142.699V228.699L80.8566 271.647ZM186.734 265.882L202.502 238.686L208.218 260.168L186.734 265.882Z" fill="#3191F9"/>
</g>
<defs>
<clipPath id="clip0">
<rect width="303" height="303" fill="white"/>
</clipPath>
</defs>
</svg>
